<svg aria-hidden="true" style="position: absolute; width: 0; height: 0; overflow: hidden;" version="1.1" xmlns="http://www.w3.org/2000/svg" xmlns:xlink="http://www.w3.org/1999/xlink">
<defs>
<symbol id="icon-menu-burger" viewBox="0 0 32 32">
<path stroke-linejoin="round" stroke-linecap="round" stroke-miterlimit="4" stroke-width="2" d="M4 8.001h24M4 16.001h24M4 24.001h24"></path>
<symbol id="icon-dashboard" viewBox="0 0 32 32">
<path d="M5.468 17.316h7.896c0.724 0 1.316-0.592 1.316-1.316v-10.528c0-0.724-0.592-1.316-1.316-1.316h-7.896c-0.724 0-1.316 0.592-1.316 1.316v10.528c0 0.724 0.592 1.316 1.316 1.316zM5.468 27.844h7.896c0.724 0 1.316-0.592 1.316-1.316v-5.264c0-0.724-0.592-1.316-1.316-1.316h-7.896c-0.724 0-1.316 0.592-1.316 1.316v5.264c0 0.724 0.592 1.316 1.316 1.316zM18.628 27.844h7.896c0.724 0 1.316-0.592 1.316-1.316v-10.528c0-0.724-0.592-1.316-1.316-1.316h-7.896c-0.724 0-1.316 0.592-1.316 1.316v10.528c0 0.724 0.592 1.316 1.316 1.316zM17.312 5.471v5.264c0 0.724 0.592 1.316 1.316 1.316h7.896c0.724 0 1.316-0.592 1.316-1.316v-5.264c0-0.724-0.592-1.316-1.316-1.316h-7.896c-0.724 0-1.316 0.592-1.316 1.316z"></path>
</symbol>
<symbol id="icon-orders" viewBox="0 0 32 32">
<path d="M9.423 23.896c-1.448 0-2.619 1.184-2.619 2.632s1.171 2.632 2.619 2.632 2.632-1.184 2.632-2.632c0-1.448-1.184-2.632-2.632-2.632zM1.527 4.156c0 0.724 0.592 1.316 1.316 1.316h1.316l4.738 9.989-1.777 3.211c-0.961 1.763 0.303 3.909 2.303 3.909h14.476c0.724 0 1.316-0.592 1.316-1.316s-0.592-1.316-1.316-1.316h-14.476l1.448-2.632h9.804c0.987 0 1.856-0.54 2.303-1.355l4.711-8.541c0.111-0.199 0.168-0.424 0.165-0.653s-0.065-0.452-0.181-0.649-0.281-0.36-0.479-0.473c-0.198-0.113-0.422-0.173-0.651-0.173h-19.477l-0.882-1.882c-0.106-0.225-0.273-0.414-0.483-0.547s-0.453-0.203-0.701-0.203h-2.158c-0.724 0-1.316 0.592-1.316 1.316zM22.583 23.896c-1.448 0-2.619 1.184-2.619 2.632s1.171 2.632 2.619 2.632c1.448 0 2.632-1.184 2.632-2.632s-1.184-2.632-2.632-2.632z"></path>
</symbol>
<symbol id="icon-products" viewBox="0 0 32 32">
<path d="M19.952 12.882v-7.41h1.316c0.349 0 0.684-0.139 0.931-0.385s0.385-0.582 0.385-0.931c0-0.349-0.139-0.684-0.385-0.931s-0.582-0.385-0.931-0.385h-10.528c-0.349 0-0.684 0.139-0.931 0.385s-0.385 0.582-0.385 0.931c0 0.349 0.139 0.684 0.385 0.931s0.582 0.385 0.931 0.385h1.316v7.41l-6.879 10.108c-1.783 2.622 0.095 6.17 3.264 6.17h15.125c3.172 0 5.048-3.548 3.264-6.17l-6.878-10.108z"></path>
</symbol>
<symbol id="icon-suppliers" viewBox="0 0 32 32">
<path d="M21.264 18.632h-3.948v3.948h-2.632v-3.948h-3.948v-2.632h3.948v-3.948h2.632v3.948h3.948zM27.845 6.788h-3.488l1.514-4.145-3.093-1.119-1.921 5.264h-16.7v2.632l2.632 7.896-2.632 7.896v2.632h23.688v-2.632l-2.632-7.896 2.632-7.896v-2.632z"></path>
</symbol>
<symbol id="icon-customers" viewBox="0 0 32 32">
<path d="M21.268 22.58v2.632h-18.424v-2.632c0 0 0-5.264 9.212-5.264s9.212 5.264 9.212 5.264zM16.662 10.078c0-0.911-0.27-1.802-0.776-2.559s-1.226-1.348-2.067-1.696c-0.842-0.349-1.768-0.44-2.661-0.262s-1.714 0.616-2.358 1.261c-0.644 0.644-1.083 1.465-1.261 2.358s-0.087 1.82 0.262 2.661c0.349 0.842 0.939 1.561 1.696 2.067s1.648 0.776 2.559 0.776c1.222 0 2.393-0.485 3.257-1.349s1.349-2.035 1.349-3.257zM21.189 17.316c0.809 0.626 1.471 1.422 1.939 2.331s0.732 1.91 0.772 2.933v2.632h5.264v-2.632c0 0 0-4.777-7.975-5.264zM19.952 5.472c-0.906-0.005-1.792 0.266-2.54 0.776 0.799 1.117 1.229 2.456 1.229 3.83s-0.43 2.713-1.229 3.83c0.748 0.511 1.634 0.781 2.54 0.776 1.222 0 2.393-0.485 3.257-1.349s1.349-2.035 1.349-3.257c0-1.222-0.485-2.393-1.349-3.257s-2.035-1.349-3.257-1.349z"></path>
</symbol>
</defs>
</svg>
