<svg xmlns="http://www.w3.org/2000/svg" aria-hidden="true" style="position:absolute;width:0;height:0;overflow:hidden">
  <defs>
<symbol id="icon-burger" viewBox="0 0 32 32">
<path stroke-linejoin="round" stroke-linecap="round" stroke-miterlimit="4" stroke-width="2.2857" d="M4 16h24M4 8h24M12 24h16"></path>
</symbol>
<symbol id="icon-close" viewBox="0 0 32 32">
<path stroke-linejoin="round" stroke-linecap="round" stroke-miterlimit="4" stroke-width="2.2857" d="M24 8l-16 16"></path>
<path stroke-linejoin="round" stroke-linecap="round" stroke-miterlimit="4" stroke-width="2.2857" d="M8 8l16 16"></path>
</symbol>
<symbol id="icon-customers" viewBox="0 0 32 32">
<path d="M21.268 22.58v2.632h-18.424v-2.632c0 0 0-5.264 9.212-5.264s9.212 5.264 9.212 5.264zM16.662 10.078c0-0.911-0.27-1.802-0.776-2.559s-1.226-1.348-2.067-1.696c-0.842-0.349-1.768-0.44-2.661-0.262s-1.714 0.616-2.358 1.261c-0.644 0.644-1.083 1.465-1.261 2.358s-0.087 1.82 0.262 2.661c0.349 0.842 0.939 1.561 1.696 2.067s1.648 0.776 2.559 0.776c1.222 0 2.393-0.485 3.257-1.349s1.349-2.035 1.349-3.257zM21.189 17.316c0.809 0.626 1.471 1.422 1.939 2.331s0.732 1.91 0.772 2.933v2.632h5.264v-2.632c0 0 0-4.777-7.975-5.264zM19.952 5.472c-0.906-0.005-1.792 0.266-2.54 0.776 0.799 1.117 1.229 2.456 1.229 3.83s-0.43 2.713-1.229 3.83c0.748 0.511 1.634 0.781 2.54 0.776 1.222 0 2.393-0.485 3.257-1.349s1.349-2.035 1.349-3.257c0-1.222-0.485-2.393-1.349-3.257s-2.035-1.349-3.257-1.349z"></path>
</symbol>
<symbol id="icon-dashboard" viewBox="0 0 32 32">
<path d="M5.468 17.316h7.896c0.724 0 1.316-0.592 1.316-1.316v-10.528c0-0.724-0.592-1.316-1.316-1.316h-7.896c-0.724 0-1.316 0.592-1.316 1.316v10.528c0 0.724 0.592 1.316 1.316 1.316zM5.468 27.844h7.896c0.724 0 1.316-0.592 1.316-1.316v-5.264c0-0.724-0.592-1.316-1.316-1.316h-7.896c-0.724 0-1.316 0.592-1.316 1.316v5.264c0 0.724 0.592 1.316 1.316 1.316zM18.628 27.844h7.896c0.724 0 1.316-0.592 1.316-1.316v-10.528c0-0.724-0.592-1.316-1.316-1.316h-7.896c-0.724 0-1.316 0.592-1.316 1.316v10.528c0 0.724 0.592 1.316 1.316 1.316zM17.312 5.471v5.264c0 0.724 0.592 1.316 1.316 1.316h7.896c0.724 0 1.316-0.592 1.316-1.316v-5.264c0-0.724-0.592-1.316-1.316-1.316h-7.896c-0.724 0-1.316 0.592-1.316 1.316z"></path>
</symbol>
<symbol id="icon-orders" viewBox="0 0 32 32">
<path d="M9.423 23.896c-1.448 0-2.619 1.184-2.619 2.632s1.171 2.632 2.619 2.632 2.632-1.184 2.632-2.632c0-1.448-1.184-2.632-2.632-2.632zM1.527 4.156c0 0.724 0.592 1.316 1.316 1.316h1.316l4.738 9.989-1.777 3.211c-0.961 1.763 0.303 3.909 2.303 3.909h14.476c0.724 0 1.316-0.592 1.316-1.316s-0.592-1.316-1.316-1.316h-14.476l1.448-2.632h9.804c0.987 0 1.856-0.54 2.303-1.355l4.711-8.541c0.111-0.199 0.168-0.424 0.165-0.653s-0.065-0.452-0.181-0.649-0.281-0.36-0.479-0.473c-0.198-0.113-0.422-0.173-0.651-0.173h-19.477l-0.882-1.882c-0.106-0.225-0.273-0.414-0.483-0.547s-0.453-0.203-0.701-0.203h-2.158c-0.724 0-1.316 0.592-1.316 1.316zM22.583 23.896c-1.448 0-2.619 1.184-2.619 2.632s1.171 2.632 2.619 2.632c1.448 0 2.632-1.184 2.632-2.632s-1.184-2.632-2.632-2.632z"></path>
</symbol>
<symbol id="icon-products" viewBox="0 0 32 32">
<path d="M19.952 12.882v-7.41h1.316c0.349 0 0.684-0.139 0.931-0.385s0.385-0.582 0.385-0.931c0-0.349-0.139-0.684-0.385-0.931s-0.582-0.385-0.931-0.385h-10.528c-0.349 0-0.684 0.139-0.931 0.385s-0.385 0.582-0.385 0.931c0 0.349 0.139 0.684 0.385 0.931s0.582 0.385 0.931 0.385h1.316v7.41l-6.879 10.108c-1.783 2.622 0.095 6.17 3.264 6.17h15.125c3.172 0 5.048-3.548 3.264-6.17l-6.878-10.108z"></path>
</symbol>
<symbol id="icon-suppliers" viewBox="0 0 32 32">
<path d="M21.264 18.632h-3.948v3.948h-2.632v-3.948h-3.948v-2.632h3.948v-3.948h2.632v3.948h3.948zM27.845 6.788h-3.488l1.514-4.145-3.093-1.119-1.921 5.264h-16.7v2.632l2.632 7.896-2.632 7.896v2.632h23.688v-2.632l-2.632-7.896 2.632-7.896v-2.632z"></path>
</symbol>
<symbol id="icon-logout" viewBox="0 0 32 32">
<path d="M8.104 2.84c-1.047 0-2.051 0.416-2.792 1.156s-1.156 1.745-1.156 2.792v18.424c0 1.047 0.416 2.051 1.156 2.792s1.745 1.157 2.792 1.157h7.896c1.047 0 2.051-0.416 2.792-1.157s1.156-1.744 1.156-2.792v-18.424c0-1.047-0.416-2.051-1.156-2.792s-1.745-1.156-2.792-1.156h-7.896zM21.65 9.805c0.247-0.247 0.581-0.385 0.93-0.385s0.684 0.139 0.93 0.385l5.264 5.264c0.247 0.247 0.385 0.581 0.385 0.93s-0.139 0.684-0.385 0.93l-5.264 5.264c-0.248 0.24-0.581 0.372-0.926 0.369s-0.675-0.141-0.919-0.385c-0.244-0.244-0.382-0.574-0.385-0.919s0.13-0.677 0.369-0.926l3.018-3.018h-11.299c-0.349 0-0.684-0.139-0.931-0.385s-0.385-0.582-0.385-0.931c0-0.349 0.139-0.684 0.385-0.931s0.582-0.385 0.931-0.385h11.299l-3.018-3.018c-0.247-0.247-0.385-0.581-0.385-0.93s0.139-0.684 0.385-0.93z"></path>
</symbol>
<symbol id="icon-logout" viewBox="0 0 64 64">
<path d="M16 5.333c-2.122 0-4.157 0.843-5.657 2.343s-2.343 3.535-2.343 5.657v37.333c0 2.122 0.843 4.157 2.343 5.657s3.535 2.343 5.657 2.343h16c2.122 0 4.157-0.843 5.657-2.343s2.343-3.535 2.343-5.657v-37.333c0-2.122-0.843-4.157-2.343-5.657s-3.535-2.343-5.657-2.343h-16zM43.448 19.448c0.5-0.5 1.178-0.781 1.885-0.781s1.385 0.281 1.886 0.781l10.666 10.667c0.5 0.5 0.781 1.178 0.781 1.885s-0.281 1.385-0.781 1.885l-10.666 10.667c-0.503 0.486-1.177 0.754-1.876 0.748s-1.368-0.286-1.862-0.781c-0.494-0.494-0.775-1.164-0.781-1.863s0.263-1.373 0.748-1.876l6.115-6.115h-22.896c-0.707 0-1.386-0.281-1.886-0.781s-0.781-1.178-0.781-1.886c0-0.707 0.281-1.386 0.781-1.886s1.178-0.781 1.886-0.781h22.896l-6.115-6.115c-0.5-0.5-0.781-1.178-0.781-1.885s0.281-1.385 0.781-1.885z"></path>
 </symbol>
<symbol id="icon-burger-menu" viewBox="0 0 64 64">
<path stroke-linejoin="round" stroke-linecap="round" stroke-miterlimit="4" stroke-width="4" d="M8 16.003h48M8 32.003h48M8 48.003h48"></path>
</symbol>
<symbol id="icon-coins" viewBox="0 0 32 32">
<path stroke-linejoin="round" stroke-linecap="round" stroke-miterlimit="4" stroke-width="2.6667" d="M20.57 17.143c5.681 0 10.286-2.047 10.286-4.571s-4.605-4.571-10.286-4.571c-5.681 0-10.286 2.047-10.286 4.571s4.605 4.571 10.286 4.571z"></path>
<path stroke-linejoin="round" stroke-linecap="round" stroke-miterlimit="4" stroke-width="2.6667" d="M10.285 12.571v13.714c0 2.514 4.571 4.571 10.286 4.571s10.286-2.057 10.286-4.571v-13.714"></path>
<path stroke-linejoin="round" stroke-linecap="round" stroke-miterlimit="4" stroke-width="2.6667" d="M30.857 19.429c0 2.514-4.572 4.571-10.286 4.571s-10.286-2.057-10.286-4.571M20.342 3.429c-2.671-1.648-5.78-2.445-8.914-2.286-5.691 0-10.286 2.057-10.286 4.571 0 1.349 1.326 2.56 3.429 3.429"></path>
<path stroke-linejoin="round" stroke-linecap="round" stroke-miterlimit="4" stroke-width="2.6667" d="M4.571 22.857c-2.103-0.869-3.429-2.080-3.429-3.429v-13.714"></path>
<path stroke-linejoin="round" stroke-linecap="round" stroke-miterlimit="4" stroke-width="2.6667" d="M4.571 16c-2.103-0.869-3.429-2.080-3.429-3.429"></path>
</symbol>
<symbol id="icon-users" viewBox="0 0 64 64">
      <path stroke-linejoin="round" stroke-linecap="round" stroke-miterlimit="4" stroke-width="4.8" d="M56 53.333c0-4.645-4.453-8.595-10.667-10.061M40 53.333c0-5.893-7.163-10.667-16-10.667s-16 4.773-16 10.667M40 34.667c2.829 0 5.542-1.124 7.542-3.124s3.124-4.713 3.124-7.542-1.124-5.542-3.124-7.543c-2-2-4.713-3.124-7.542-3.124M24 34.667c-2.829 0-5.542-1.124-7.542-3.124s-3.124-4.713-3.124-7.542 1.124-5.542 3.124-7.543c2-2 4.713-3.124 7.542-3.124s5.542 1.124 7.542 3.124c2 2 3.124 4.713 3.124 7.543s-1.124 5.542-3.124 7.542c-2 2-4.713 3.124-7.542 3.124z"></path>
    </symbol>
    <symbol id="icon-filter" viewBox="0 0 64 64">
      <path stroke-linejoin="round" stroke-linecap="round" stroke-miterlimit="4" stroke-width="6.8571" d="M58.667 8h-53.333l21.333 25.227v17.44l10.667 5.334v-22.773l21.333-25.227z"></path>
    </symbol>
    <symbol id="icon-edit" viewBox="0 0 64 64">
      <path stroke-linejoin="round" stroke-linecap="round" stroke-miterlimit="4" stroke-width="5.2" d="M45.339 8.004c0.7-0.7 1.532-1.256 2.447-1.635s1.896-0.574 2.886-0.574c0.99 0 1.971 0.195 2.886 0.574s1.746 0.935 2.447 1.635 1.256 1.532 1.635 2.447c0.379 0.915 0.574 1.896 0.574 2.886s-0.195 1.971-0.574 2.886c-0.379 0.915-0.934 1.747-1.635 2.447l-36 36-14.667 4 4-14.666 36-36z"></path>
    </symbol>
    <symbol id="icon-trash" viewBox="0 0 64 64">
      <path stroke-linejoin="round" stroke-linecap="round" stroke-miterlimit="4" stroke-width="5.2" d="M8 16h48"></path>
      <path stroke-linejoin="round" stroke-linecap="round" stroke-miterlimit="4" stroke-width="5.2" d="M50.667 16v37.333c0 1.414-0.562 2.771-1.562 3.771s-2.356 1.562-3.771 1.562h-26.667c-1.415 0-2.771-0.562-3.771-1.562s-1.562-2.357-1.562-3.771v-37.333M21.333 16v-5.333c0-1.415 0.562-2.771 1.562-3.771s2.357-1.562 3.771-1.562h10.667c1.414 0 2.771 0.562 3.771 1.562s1.562 2.357 1.562 3.771v5.333"></path>
      <path stroke-linejoin="round" stroke-linecap="round" stroke-miterlimit="4" stroke-width="5.2" d="M26.667 29.333v16"></path>
      <path stroke-linejoin="round" stroke-linecap="round" stroke-miterlimit="4" stroke-width="5.2" d="M37.333 29.333v16"></path>
    </symbol>
<symbol id="icon-plus" viewBox="0 0 64 64">
      <path d="M13.333 34.667h16v16c0 1.472 1.195 2.667 2.667 2.667s2.667-1.195 2.667-2.667v-16h16c1.472 0 2.667-1.195 2.667-2.667s-1.195-2.667-2.667-2.667h-16v-16c0-1.472-1.195-2.667-2.667-2.667s-2.667 1.195-2.667 2.667v16h-16c-1.472 0-2.667 1.195-2.667 2.667s1.195 2.667 2.667 2.667z"></path>
    </symbol>
    <symbol id="icon-calendar" viewBox="0 0 64 64">
      <path fill="none" stroke="#59b17a" style="stroke: var(--color1, #59b17a)" stroke-linejoin="round" stroke-linecap="round" stroke-miterlimit="4" stroke-width="6" d="M50.667 10.664h-37.334c-2.945 0-5.333 2.388-5.333 5.333v37.333c0 2.946 2.388 5.333 5.333 5.333h37.334c2.945 0 5.333-2.388 5.333-5.333v-37.333c0-2.945-2.388-5.333-5.333-5.333z"></path>
      <path fill="none" stroke="#59b17a" style="stroke: var(--color1, #59b17a)" stroke-linejoin="round" stroke-linecap="round" stroke-miterlimit="4" stroke-width="6" d="M42.664 5.336v10.667"></path>
      <path fill="none" stroke="#59b17a" style="stroke: var(--color1, #59b17a)" stroke-linejoin="round" stroke-linecap="round" stroke-miterlimit="4" stroke-width="6" d="M21.336 5.336v10.667"></path>
      <path fill="none" stroke="#59b17a" style="stroke: var(--color1, #59b17a)" stroke-linejoin="round" stroke-linecap="round" stroke-miterlimit="4" stroke-width="6" d="M8 26.664h48"></path>
    </symbol>
</defs>
</svg>
